<mxfile host="app.diagrams.net" modified="2023-09-27T23:20:17.733Z" agent="Mozilla/5.0 (Windows NT 10.0; Win64; x64) AppleWebKit/537.36 (KHTML, like Gecko) Chrome/117.0.0.0 Safari/537.36" etag="6U-rFHPoOnnh3Tzuc3vt" version="21.8.2" type="github">
  <diagram name="Página-1" id="h9aFkIXK7h9VkDjL9fZY">
    <mxGraphModel dx="1221" dy="662" grid="1" gridSize="10" guides="1" tooltips="1" connect="1" arrows="1" fold="1" page="1" pageScale="1" pageWidth="827" pageHeight="1169" math="0" shadow="0">
      <root>
        <mxCell id="0" />
        <mxCell id="1" parent="0" />
        <mxCell id="GbD8UCqcP7JburpwIsBb-6" style="edgeStyle=orthogonalEdgeStyle;rounded=0;orthogonalLoop=1;jettySize=auto;html=1;entryX=0;entryY=0.5;entryDx=0;entryDy=0;" edge="1" parent="1" source="GbD8UCqcP7JburpwIsBb-1" target="GbD8UCqcP7JburpwIsBb-2">
          <mxGeometry relative="1" as="geometry" />
        </mxCell>
        <mxCell id="GbD8UCqcP7JburpwIsBb-1" value="CLIENTE" style="rounded=0;whiteSpace=wrap;html=1;" vertex="1" parent="1">
          <mxGeometry x="178" y="70" width="120" height="60" as="geometry" />
        </mxCell>
        <mxCell id="GbD8UCqcP7JburpwIsBb-7" style="edgeStyle=orthogonalEdgeStyle;rounded=0;orthogonalLoop=1;jettySize=auto;html=1;entryX=0;entryY=0.5;entryDx=0;entryDy=0;" edge="1" parent="1" source="GbD8UCqcP7JburpwIsBb-2" target="GbD8UCqcP7JburpwIsBb-3">
          <mxGeometry relative="1" as="geometry" />
        </mxCell>
        <mxCell id="GbD8UCqcP7JburpwIsBb-2" value="compra" style="rhombus;whiteSpace=wrap;html=1;" vertex="1" parent="1">
          <mxGeometry x="398" y="60" width="80" height="80" as="geometry" />
        </mxCell>
        <mxCell id="GbD8UCqcP7JburpwIsBb-8" style="edgeStyle=orthogonalEdgeStyle;rounded=0;orthogonalLoop=1;jettySize=auto;html=1;entryX=1;entryY=0.5;entryDx=0;entryDy=0;exitX=1;exitY=0.5;exitDx=0;exitDy=0;" edge="1" parent="1" source="GbD8UCqcP7JburpwIsBb-3" target="GbD8UCqcP7JburpwIsBb-4">
          <mxGeometry relative="1" as="geometry">
            <Array as="points">
              <mxPoint x="728" y="100" />
              <mxPoint x="728" y="260" />
            </Array>
          </mxGeometry>
        </mxCell>
        <mxCell id="GbD8UCqcP7JburpwIsBb-3" value="PRODUCTO" style="rounded=0;whiteSpace=wrap;html=1;" vertex="1" parent="1">
          <mxGeometry x="558" y="70" width="120" height="60" as="geometry" />
        </mxCell>
        <mxCell id="GbD8UCqcP7JburpwIsBb-9" style="edgeStyle=orthogonalEdgeStyle;rounded=0;orthogonalLoop=1;jettySize=auto;html=1;entryX=1;entryY=0.5;entryDx=0;entryDy=0;" edge="1" parent="1" source="GbD8UCqcP7JburpwIsBb-4" target="GbD8UCqcP7JburpwIsBb-5">
          <mxGeometry relative="1" as="geometry" />
        </mxCell>
        <mxCell id="GbD8UCqcP7JburpwIsBb-4" value="suministra" style="rhombus;whiteSpace=wrap;html=1;" vertex="1" parent="1">
          <mxGeometry x="578" y="220" width="80" height="80" as="geometry" />
        </mxCell>
        <mxCell id="GbD8UCqcP7JburpwIsBb-5" value="PROVEEDOR" style="rounded=0;whiteSpace=wrap;html=1;" vertex="1" parent="1">
          <mxGeometry x="348" y="230" width="120" height="60" as="geometry" />
        </mxCell>
        <mxCell id="GbD8UCqcP7JburpwIsBb-10" value="nombre" style="ellipse;whiteSpace=wrap;html=1;" vertex="1" parent="1">
          <mxGeometry x="118" y="170" width="50" height="20" as="geometry" />
        </mxCell>
        <mxCell id="GbD8UCqcP7JburpwIsBb-11" value="apellidos" style="ellipse;whiteSpace=wrap;html=1;" vertex="1" parent="1">
          <mxGeometry x="168" y="190" width="60" height="20" as="geometry" />
        </mxCell>
        <mxCell id="GbD8UCqcP7JburpwIsBb-12" value="DNI" style="ellipse;whiteSpace=wrap;html=1;" vertex="1" parent="1">
          <mxGeometry x="98" y="140" width="50" height="20" as="geometry" />
        </mxCell>
        <mxCell id="GbD8UCqcP7JburpwIsBb-13" value="dirección" style="ellipse;whiteSpace=wrap;html=1;" vertex="1" parent="1">
          <mxGeometry x="238" y="190" width="60" height="20" as="geometry" />
        </mxCell>
        <mxCell id="GbD8UCqcP7JburpwIsBb-14" value="telefono" style="ellipse;whiteSpace=wrap;html=1;" vertex="1" parent="1">
          <mxGeometry x="282" y="160" width="60" height="20" as="geometry" />
        </mxCell>
        <mxCell id="GbD8UCqcP7JburpwIsBb-16" style="edgeStyle=orthogonalEdgeStyle;rounded=0;orthogonalLoop=1;jettySize=auto;html=1;exitX=0.5;exitY=1;exitDx=0;exitDy=0;" edge="1" parent="1" source="GbD8UCqcP7JburpwIsBb-13" target="GbD8UCqcP7JburpwIsBb-13">
          <mxGeometry relative="1" as="geometry" />
        </mxCell>
        <mxCell id="GbD8UCqcP7JburpwIsBb-17" value="" style="endArrow=none;html=1;rounded=0;entryX=0;entryY=1;entryDx=0;entryDy=0;exitX=0.5;exitY=0;exitDx=0;exitDy=0;" edge="1" parent="1" source="GbD8UCqcP7JburpwIsBb-12" target="GbD8UCqcP7JburpwIsBb-1">
          <mxGeometry width="50" height="50" relative="1" as="geometry">
            <mxPoint x="148" y="200" as="sourcePoint" />
            <mxPoint x="198" y="150" as="targetPoint" />
          </mxGeometry>
        </mxCell>
        <mxCell id="GbD8UCqcP7JburpwIsBb-18" value="" style="endArrow=none;html=1;rounded=0;entryX=0.25;entryY=1;entryDx=0;entryDy=0;exitX=0.5;exitY=0;exitDx=0;exitDy=0;" edge="1" parent="1" source="GbD8UCqcP7JburpwIsBb-10" target="GbD8UCqcP7JburpwIsBb-1">
          <mxGeometry width="50" height="50" relative="1" as="geometry">
            <mxPoint x="158" y="190" as="sourcePoint" />
            <mxPoint x="208" y="140" as="targetPoint" />
          </mxGeometry>
        </mxCell>
        <mxCell id="GbD8UCqcP7JburpwIsBb-19" value="" style="endArrow=none;html=1;rounded=0;entryX=0.5;entryY=1;entryDx=0;entryDy=0;exitX=0.5;exitY=0;exitDx=0;exitDy=0;" edge="1" parent="1" source="GbD8UCqcP7JburpwIsBb-11" target="GbD8UCqcP7JburpwIsBb-1">
          <mxGeometry width="50" height="50" relative="1" as="geometry">
            <mxPoint x="188" y="190" as="sourcePoint" />
            <mxPoint x="238" y="140" as="targetPoint" />
          </mxGeometry>
        </mxCell>
        <mxCell id="GbD8UCqcP7JburpwIsBb-20" value="" style="endArrow=none;html=1;rounded=0;entryX=0.75;entryY=1;entryDx=0;entryDy=0;exitX=0.5;exitY=0;exitDx=0;exitDy=0;" edge="1" parent="1" source="GbD8UCqcP7JburpwIsBb-13" target="GbD8UCqcP7JburpwIsBb-1">
          <mxGeometry width="50" height="50" relative="1" as="geometry">
            <mxPoint x="218" y="190" as="sourcePoint" />
            <mxPoint x="268" y="140" as="targetPoint" />
          </mxGeometry>
        </mxCell>
        <mxCell id="GbD8UCqcP7JburpwIsBb-21" value="" style="endArrow=none;html=1;rounded=0;entryX=1;entryY=1;entryDx=0;entryDy=0;exitX=0.5;exitY=0;exitDx=0;exitDy=0;" edge="1" parent="1" source="GbD8UCqcP7JburpwIsBb-14" target="GbD8UCqcP7JburpwIsBb-1">
          <mxGeometry width="50" height="50" relative="1" as="geometry">
            <mxPoint x="262" y="190" as="sourcePoint" />
            <mxPoint x="312" y="140" as="targetPoint" />
          </mxGeometry>
        </mxCell>
        <mxCell id="GbD8UCqcP7JburpwIsBb-23" value="nombre" style="ellipse;whiteSpace=wrap;html=1;" vertex="1" parent="1">
          <mxGeometry x="498" y="140" width="50" height="20" as="geometry" />
        </mxCell>
        <mxCell id="GbD8UCqcP7JburpwIsBb-24" value="codigo" style="ellipse;whiteSpace=wrap;html=1;" vertex="1" parent="1">
          <mxGeometry x="538" y="170" width="50" height="20" as="geometry" />
        </mxCell>
        <mxCell id="GbD8UCqcP7JburpwIsBb-25" value="precio_unit" style="ellipse;whiteSpace=wrap;html=1;" vertex="1" parent="1">
          <mxGeometry x="578" y="150" width="80" height="20" as="geometry" />
        </mxCell>
        <mxCell id="GbD8UCqcP7JburpwIsBb-26" value="" style="endArrow=none;html=1;rounded=0;entryX=0;entryY=1;entryDx=0;entryDy=0;exitX=1;exitY=0;exitDx=0;exitDy=0;" edge="1" parent="1" source="GbD8UCqcP7JburpwIsBb-23" target="GbD8UCqcP7JburpwIsBb-3">
          <mxGeometry width="50" height="50" relative="1" as="geometry">
            <mxPoint x="428" y="190" as="sourcePoint" />
            <mxPoint x="478" y="140" as="targetPoint" />
          </mxGeometry>
        </mxCell>
        <mxCell id="GbD8UCqcP7JburpwIsBb-27" value="" style="endArrow=none;html=1;rounded=0;exitX=0.5;exitY=0;exitDx=0;exitDy=0;entryX=0.25;entryY=1;entryDx=0;entryDy=0;" edge="1" parent="1" source="GbD8UCqcP7JburpwIsBb-24" target="GbD8UCqcP7JburpwIsBb-3">
          <mxGeometry width="50" height="50" relative="1" as="geometry">
            <mxPoint x="548" y="180" as="sourcePoint" />
            <mxPoint x="598" y="130" as="targetPoint" />
          </mxGeometry>
        </mxCell>
        <mxCell id="GbD8UCqcP7JburpwIsBb-29" value="" style="endArrow=none;html=1;rounded=0;entryX=0.5;entryY=1;entryDx=0;entryDy=0;exitX=0.5;exitY=0;exitDx=0;exitDy=0;" edge="1" parent="1" source="GbD8UCqcP7JburpwIsBb-25" target="GbD8UCqcP7JburpwIsBb-3">
          <mxGeometry width="50" height="50" relative="1" as="geometry">
            <mxPoint x="608" y="200" as="sourcePoint" />
            <mxPoint x="658" y="150" as="targetPoint" />
          </mxGeometry>
        </mxCell>
        <mxCell id="GbD8UCqcP7JburpwIsBb-30" value="nombre" style="ellipse;whiteSpace=wrap;html=1;" vertex="1" parent="1">
          <mxGeometry x="372" y="330" width="50" height="20" as="geometry" />
        </mxCell>
        <mxCell id="GbD8UCqcP7JburpwIsBb-31" value="direccion" style="ellipse;whiteSpace=wrap;html=1;" vertex="1" parent="1">
          <mxGeometry x="428" y="320" width="70" height="20" as="geometry" />
        </mxCell>
        <mxCell id="GbD8UCqcP7JburpwIsBb-33" value="NIF" style="ellipse;whiteSpace=wrap;html=1;" vertex="1" parent="1">
          <mxGeometry x="303" y="320" width="50" height="20" as="geometry" />
        </mxCell>
        <mxCell id="GbD8UCqcP7JburpwIsBb-34" value="" style="endArrow=none;html=1;rounded=0;entryX=0.5;entryY=1;entryDx=0;entryDy=0;exitX=0.5;exitY=0;exitDx=0;exitDy=0;" edge="1" parent="1" source="GbD8UCqcP7JburpwIsBb-30" target="GbD8UCqcP7JburpwIsBb-5">
          <mxGeometry width="50" height="50" relative="1" as="geometry">
            <mxPoint x="347" y="350" as="sourcePoint" />
            <mxPoint x="397" y="300" as="targetPoint" />
          </mxGeometry>
        </mxCell>
        <mxCell id="GbD8UCqcP7JburpwIsBb-35" value="" style="endArrow=none;html=1;rounded=0;entryX=0.75;entryY=1;entryDx=0;entryDy=0;exitX=0.5;exitY=0;exitDx=0;exitDy=0;" edge="1" parent="1" source="GbD8UCqcP7JburpwIsBb-31" target="GbD8UCqcP7JburpwIsBb-5">
          <mxGeometry width="50" height="50" relative="1" as="geometry">
            <mxPoint x="413" y="360" as="sourcePoint" />
            <mxPoint x="463" y="310" as="targetPoint" />
          </mxGeometry>
        </mxCell>
        <mxCell id="GbD8UCqcP7JburpwIsBb-36" value="" style="endArrow=none;html=1;rounded=0;entryX=0.25;entryY=1;entryDx=0;entryDy=0;exitX=0.5;exitY=0;exitDx=0;exitDy=0;" edge="1" parent="1" source="GbD8UCqcP7JburpwIsBb-33" target="GbD8UCqcP7JburpwIsBb-5">
          <mxGeometry width="50" height="50" relative="1" as="geometry">
            <mxPoint x="333" y="310" as="sourcePoint" />
            <mxPoint x="368" y="295" as="targetPoint" />
          </mxGeometry>
        </mxCell>
        <mxCell id="GbD8UCqcP7JburpwIsBb-38" value="cod_proveedor" style="ellipse;whiteSpace=wrap;html=1;" vertex="1" parent="1">
          <mxGeometry x="628" y="170" width="90" height="20" as="geometry" />
        </mxCell>
        <mxCell id="GbD8UCqcP7JburpwIsBb-39" value="" style="endArrow=none;html=1;rounded=0;entryX=0.75;entryY=1;entryDx=0;entryDy=0;exitX=0.5;exitY=0;exitDx=0;exitDy=0;" edge="1" parent="1" source="GbD8UCqcP7JburpwIsBb-38" target="GbD8UCqcP7JburpwIsBb-3">
          <mxGeometry width="50" height="50" relative="1" as="geometry">
            <mxPoint x="608" y="185" as="sourcePoint" />
            <mxPoint x="658" y="135" as="targetPoint" />
          </mxGeometry>
        </mxCell>
        <mxCell id="GbD8UCqcP7JburpwIsBb-40" value="(1,n)" style="text;html=1;strokeColor=none;fillColor=none;align=center;verticalAlign=middle;whiteSpace=wrap;rounded=0;" vertex="1" parent="1">
          <mxGeometry x="488" y="70" width="60" height="30" as="geometry" />
        </mxCell>
        <mxCell id="GbD8UCqcP7JburpwIsBb-41" value="(1,n)" style="text;html=1;strokeColor=none;fillColor=none;align=center;verticalAlign=middle;whiteSpace=wrap;rounded=0;" vertex="1" parent="1">
          <mxGeometry x="303" y="70" width="60" height="30" as="geometry" />
        </mxCell>
        <mxCell id="GbD8UCqcP7JburpwIsBb-42" value="N:M" style="text;html=1;strokeColor=none;fillColor=none;align=center;verticalAlign=middle;whiteSpace=wrap;rounded=0;" vertex="1" parent="1">
          <mxGeometry x="408" y="30" width="60" height="30" as="geometry" />
        </mxCell>
        <mxCell id="GbD8UCqcP7JburpwIsBb-44" value="(1,1)" style="text;html=1;strokeColor=none;fillColor=none;align=center;verticalAlign=middle;whiteSpace=wrap;rounded=0;" vertex="1" parent="1">
          <mxGeometry x="468" y="230" width="60" height="30" as="geometry" />
        </mxCell>
        <mxCell id="GbD8UCqcP7JburpwIsBb-45" value="(1,n)" style="text;html=1;strokeColor=none;fillColor=none;align=center;verticalAlign=middle;whiteSpace=wrap;rounded=0;" vertex="1" parent="1">
          <mxGeometry x="678" y="70" width="60" height="30" as="geometry" />
        </mxCell>
        <mxCell id="GbD8UCqcP7JburpwIsBb-47" value="1:N" style="text;html=1;strokeColor=none;fillColor=none;align=center;verticalAlign=middle;whiteSpace=wrap;rounded=0;" vertex="1" parent="1">
          <mxGeometry x="588" y="190" width="60" height="30" as="geometry" />
        </mxCell>
      </root>
    </mxGraphModel>
  </diagram>
</mxfile>
